<svg xmlns="http://www.w3.org/2000/svg" version="1.1" xmlns:xlink="http://www.w3.org/1999/xlink" xmlns:svgjs="http://svgjs.dev/svgjs" width="2000" height="1247" viewBox="0 0 2000 1247"><g transform="matrix(1,0,0,1,-1.2121212121212466,0.504858299595071)"><svg viewBox="0 0 396 247" data-background-color="#ffffff" preserveAspectRatio="xMidYMid meet" height="1247" width="2000" xmlns="http://www.w3.org/2000/svg" xmlns:xlink="http://www.w3.org/1999/xlink"><g id="tight-bounds" transform="matrix(1,0,0,1,0.2400000000000091,-0.09999999999999432)"><svg viewBox="0 0 395.52 247.2" height="247.2" width="395.52"><g><svg></svg></g><g><svg viewBox="0 0 395.52 247.2" height="247.2" width="395.52"><g transform="matrix(1,0,0,1,77.2985058139535,47.215199999999996)"><svg viewBox="0 0 240.922988372093 152.7696" height="152.7696" width="240.922988372093"><g><svg viewBox="0 0 240.92298837209304 152.76960000000003" height="152.7696" width="240.922988372093"><g><svg viewBox="0 0 240.92298837209304 152.76960000000003" height="152.76960000000003" width="240.92298837209304"><g id="textblocktransform"><svg viewBox="0 0 240.92298837209304 152.76960000000003" height="152.76960000000003" width="240.92298837209304" id="textblock"><g><svg viewBox="0 0 240.92298837209304 152.76960000000003" height="152.76960000000003" width="240.92298837209304"><g transform="matrix(1,0,0,1,0,0)"><svg width="240.92298837209304" viewBox="2.75 -34.400001525878906 54.25 34.400001525878906" height="152.76960000000003" data-palette-color="#8d021f"><path d="M30.15-34.4L32.8 0 28.35 0 27.3-15.55Q26.6-26 26.55-29.95L26.55-29.95 19.95-3.9 15.6-3.9 8.7-29.95Q8.75-25.6 8.15-15.45L8.15-15.45 7.15 0 2.75 0 5.4-34.4 11.45-34.4 17.85-8.95 24-34.4 30.15-34.4ZM39.8-34.4L44.45-34.4 44.45-3.95 57-3.95 56.5 0 39.8 0 39.8-34.4Z" opacity="1" transform="matrix(1,0,0,1,0,0)" fill="#8d021f" class="undefined-text-0" data-fill-palette-color="primary" id="text-0"></path></svg></g></svg></g></svg></g></svg></g></svg></g></svg></g><path d="M259.6 41.215L259.6 0 12.4 0 12.4 247.2 259.6 247.2 259.6 205.985 245.823 205.985 245.823 233.423 26.177 233.423 26.177 13.777 245.823 13.777 245.823 41.215Z" fill="#8d021f" stroke="transparent" data-fill-palette-color="primary"></path></svg></g><defs></defs></svg><rect width="395.52" height="247.2" fill="none" stroke="none" visibility="hidden"></rect></g></svg></g></svg>